<svg width="33" height="31" viewBox="0 0 33 31" fill="none" xmlns="http://www.w3.org/2000/svg">
<path d="M19.7952 0.28125V6.07488H25.5888V0.28125H19.7952ZM20.7606 1.24673H24.6233V5.1094H20.7606V1.24673ZM21.7261 2.2122V4.14392H23.6578V2.2122H21.7261ZM10.0381 3.17768V5.61828H12.6333C14.2798 5.61828 15.2145 6.41771 15.2145 7.87746C15.2145 9.3741 14.2798 10.192 12.6333 10.192H10.0374V5.61828H7.14018V16.2908H10.0374V12.6318H12.7816C16.1124 12.6318 18.0202 10.8239 18.0202 7.77369C18.0202 4.87495 16.1124 3.17845 12.7824 3.17845L10.0381 3.17768Z" fill="white"/>
<path d="M4.3749 21.4693H1.95813V27.9263H2.64073V25.8877H4.3749C6.01682 25.8877 7.01305 25.0575 7.01305 23.6831C7.01305 22.2994 6.01682 21.4693 4.3749 21.4693ZM4.35645 25.2881H2.64073V22.0596H4.35645C5.64785 22.0596 6.33045 22.65 6.33045 23.6831C6.33045 24.6978 5.64785 25.2881 4.35645 25.2881ZM8.55661 22.0135C8.83334 22.0135 9.03627 21.8013 9.03627 21.5338C9.03627 21.2848 8.82411 21.0818 8.55661 21.0818C8.2891 21.0818 8.07694 21.294 8.07694 21.5431C8.07694 21.8013 8.2891 22.0135 8.55661 22.0135ZM8.22453 27.9263H8.87946V23.0743H8.22453V27.9263ZM12.7127 27.9724C13.5336 27.9724 14.2254 27.6403 14.6129 27.0131L14.124 26.681C13.7919 27.1699 13.2753 27.3913 12.7127 27.3913C11.6519 27.3913 10.877 26.6441 10.877 25.5003C10.877 24.3657 11.6519 23.6093 12.7127 23.6093C13.2753 23.6093 13.7919 23.8399 14.124 24.3288L14.6129 23.9967C14.2254 23.3602 13.5336 23.0374 12.7127 23.0374C11.2644 23.0374 10.2129 24.0521 10.2129 25.5003C10.2129 26.9485 11.2644 27.9724 12.7127 27.9724ZM18.4546 21.4693H16.0378V27.9263H16.7204V25.8877H18.4546C20.0965 25.8877 21.0927 25.0575 21.0927 23.6831C21.0927 22.2994 20.0965 21.4693 18.4546 21.4693ZM18.4361 25.2881H16.7204V22.0596H18.4361C19.7275 22.0596 20.4101 22.65 20.4101 23.6831C20.4101 24.6978 19.7275 25.2881 18.4361 25.2881ZM24.0825 23.0374C23.3169 23.0374 22.5974 23.2772 22.1085 23.6923L22.4037 24.1812C22.8004 23.8307 23.3907 23.6093 24.018 23.6093C24.922 23.6093 25.3924 24.0613 25.3924 24.8915V25.1867H23.8519C22.4591 25.1867 21.9794 25.8139 21.9794 26.5611C21.9794 27.4005 22.6528 27.9724 23.7505 27.9724C24.553 27.9724 25.1249 27.668 25.4201 27.1699V27.9263H26.0473V24.9191C26.0473 23.6646 25.337 23.0374 24.0825 23.0374ZM23.8519 27.4558C23.0771 27.4558 22.6251 27.1053 22.6251 26.5426C22.6251 26.0445 22.9295 25.6755 23.8704 25.6755H25.3924V26.4688C25.1341 27.1053 24.5899 27.4558 23.8519 27.4558ZM31.1675 23.0743L29.3411 27.1975L27.5147 23.0743H26.8321L28.9998 27.917L28.7877 28.3875C28.5109 28.9963 28.2158 29.1992 27.7822 29.1992C27.4317 29.1992 27.1365 29.0701 26.8967 28.8303L26.5923 29.3191C26.8875 29.6143 27.321 29.7619 27.773 29.7619C28.4648 29.7619 28.9814 29.4575 29.3872 28.5074L31.8132 23.0743H31.1675Z" fill="white"/>
</svg>
